<?xml version="1.0" encoding="UTF-8"?>
<svg xmlns="http://www.w3.org/2000/svg" version="1.1" viewBox="0 0 199 150.7">
  <defs>
    <style>
      .cls-1 {
        fill: #222;
      }
    </style>
  </defs>
  <!-- Generator: Adobe Illustrator 28.7.3, SVG Export Plug-In . SVG Version: 1.2.0 Build 164)  -->
  <g>
    <g id="Layer_1">
      <g id="Layer_1-2" data-name="Layer_1">
        <g id="Submark">
          <path class="cls-1" d="M175.5,96.6c-6.9,9-17.2,14.9-31.3,15.2-16.7-.4-37.9-10.6-37.9-35V23.7h-17.2v51.8h0c0,30.3,26.5,51.6,55.9,51.6s36.3-9.4,44.4-23.3l-13.9-7.1h0Z"/>
          <path class="cls-1" d="M144.9,23.6c-13.1,0-24.5,3.5-34.6,10.8v22.7c7-11.1,18.8-18.2,33.9-18.2,11.6-.2,24.5,6,31.2,15.4l14.1-7.5c-9.4-13.7-26.2-22.7-44.8-23.2h.2Z"/>
          <path class="cls-1" d="M87.8,96.6c-7.1,9.8-18.8,15.2-31.4,15.2-15,.1-26.1-6.2-32.8-15.2l-14.1,6.9c9,13.3,26.1,23.5,46.3,23.5s31-7,40.6-17.2c-3-2.8-6.9-8.5-8.6-13.2h0Z"/>
        </g>
      </g>
    </g>
  </g>
</svg>